<svg width="100" height="100" viewBox="0 0 100 100" fill="none" xmlns="http://www.w3.org/2000/svg">
<g clip-path="url(#clip0_2107_1027)">
<rect width="100" height="100" rx="50" fill="url(#paint0_linear_2107_1027)"/>
<g filter="url(#filter0_dddd_2107_1027)">
<path d="M25 44.2C25 37.4794 25 34.1191 26.3079 31.5521C27.4584 29.2942 29.2942 27.4584 31.5521 26.3079C34.1191 25 37.4794 25 44.2 25H55.8C62.5206 25 65.8809 25 68.4479 26.3079C70.7058 27.4584 72.5416 29.2942 73.6921 31.5521C75 34.1191 75 37.4794 75 44.2V55.8C75 62.5206 75 65.8809 73.6921 68.4479C72.5416 70.7058 70.7058 72.5416 68.4479 73.6921C65.8809 75 62.5206 75 55.8 75H44.2C37.4794 75 34.1191 75 31.5521 73.6921C29.2942 72.5416 27.4584 70.7058 26.3079 68.4479C25 65.8809 25 62.5206 25 55.8V44.2Z" fill="white"/>
</g>
<circle cx="64" cy="36" r="3" fill="#F16917"/>
<path fill-rule="evenodd" clip-rule="evenodd" d="M50 63C57.1797 63 63 57.1797 63 50C63 42.8203 57.1797 37 50 37C42.8203 37 37 42.8203 37 50C37 57.1797 42.8203 63 50 63ZM50 60C55.5228 60 60 55.5228 60 50C60 44.4771 55.5228 40 50 40C44.4772 40 40 44.4771 40 50C40 55.5228 44.4772 60 50 60Z" fill="#EF6514"/>
</g>
<defs>
<filter id="filter0_dddd_2107_1027" x="21.4908" y="24.8215" width="57.0184" height="58.9923" filterUnits="userSpaceOnUse" color-interpolation-filters="sRGB">
<feFlood flood-opacity="0" result="BackgroundImageFix"/>
<feColorMatrix in="SourceAlpha" type="matrix" values="0 0 0 0 0 0 0 0 0 0 0 0 0 0 0 0 0 0 127 0" result="hardAlpha"/>
<feOffset dy="0.255029"/>
<feGaussianBlur stdDeviation="0.216774"/>
<feColorMatrix type="matrix" values="0 0 0 0 0.12549 0 0 0 0 0 0 0 0 0 0.168627 0 0 0 0.13 0"/>
<feBlend mode="normal" in2="BackgroundImageFix" result="effect1_dropShadow_2107_1027"/>
<feColorMatrix in="SourceAlpha" type="matrix" values="0 0 0 0 0 0 0 0 0 0 0 0 0 0 0 0 0 0 127 0" result="hardAlpha"/>
<feOffset dy="1.12213"/>
<feGaussianBlur stdDeviation="0.44885"/>
<feColorMatrix type="matrix" values="0 0 0 0 0.12549 0 0 0 0 0 0 0 0 0 0.168627 0 0 0 0.0987037 0"/>
<feBlend mode="normal" in2="effect1_dropShadow_2107_1027" result="effect2_dropShadow_2107_1027"/>
<feColorMatrix in="SourceAlpha" type="matrix" values="0 0 0 0 0 0 0 0 0 0 0 0 0 0 0 0 0 0 127 0" result="hardAlpha"/>
<feOffset dy="2.75431"/>
<feGaussianBlur stdDeviation="0.89515"/>
<feColorMatrix type="matrix" values="0 0 0 0 0.12549 0 0 0 0 0 0 0 0 0 0.168627 0 0 0 0.078963 0"/>
<feBlend mode="normal" in2="effect2_dropShadow_2107_1027" result="effect3_dropShadow_2107_1027"/>
<feColorMatrix in="SourceAlpha" type="matrix" values="0 0 0 0 0 0 0 0 0 0 0 0 0 0 0 0 0 0 127 0" result="hardAlpha"/>
<feOffset dy="5.30459"/>
<feGaussianBlur stdDeviation="1.7546"/>
<feColorMatrix type="matrix" values="0 0 0 0 0.12549 0 0 0 0 0 0 0 0 0 0.168627 0 0 0 0.065 0"/>
<feBlend mode="normal" in2="effect3_dropShadow_2107_1027" result="effect4_dropShadow_2107_1027"/>
<feBlend mode="normal" in="SourceGraphic" in2="effect4_dropShadow_2107_1027" result="shape"/>
</filter>
<linearGradient id="paint0_linear_2107_1027" x1="0" y1="0" x2="100" y2="100" gradientUnits="userSpaceOnUse">
<stop offset="0.147702" stop-color="#FC7B1E"/>
<stop offset="1" stop-color="#E5530B"/>
</linearGradient>
<clipPath id="clip0_2107_1027">
<rect width="100" height="100" fill="white"/>
</clipPath>
</defs>
</svg>
